# This file uses meters as units for non-parametric coordinates.

mtllib LightPillar.mtl
g default
v 46.193989 0.000000 -19.134142
v 35.355358 0.000000 -35.355316
v 19.134195 0.000000 -46.193962
v 0.000025 0.000000 -49.999992
v -19.134150 0.000000 -46.193985
v -35.355324 0.000000 -35.355354
v -46.193970 0.000000 -19.134188
v -50.000000 0.000000 -0.000016
v -46.193981 0.000000 19.134159
v -35.355347 0.000000 35.355331
v -19.134180 0.000000 46.193977
v -0.000007 0.000000 50.000000
v 19.134165 0.000000 46.193977
v 35.355335 0.000000 35.355347
v 46.193974 0.000000 19.134174
v 50.000000 0.000000 0.000002
v 46.193989 600.000000 -19.134142
v 35.355358 600.000000 -35.355316
v 19.134195 600.000000 -46.193962
v 0.000025 600.000000 -49.999992
v -19.134150 600.000000 -46.193985
v -35.355324 600.000000 -35.355354
v -46.193970 600.000000 -19.134188
v -50.000000 600.000000 -0.000016
v -46.193981 600.000000 19.134159
v -35.355347 600.000000 35.355331
v -19.134180 600.000000 46.193977
v -0.000007 600.000000 50.000000
v 19.134165 600.000000 46.193977
v 35.355335 600.000000 35.355347
v 46.193974 600.000000 19.134174
v 50.000000 600.000000 0.000002
vt 0.010184 0.015900
vt 0.071255 0.015900
vt 0.132327 0.015900
vt 0.193397 0.015900
vt 0.254468 0.015900
vt 0.315539 0.015900
vt 0.376611 0.015900
vt 0.437681 0.015900
vt 0.498752 0.015900
vt 0.559823 0.015900
vt 0.620894 0.015900
vt 0.681965 0.015900
vt 0.743036 0.015900
vt 0.804107 0.015900
vt 0.865178 0.015900
vt 0.926249 0.015900
vt 0.987320 0.015900
vt 0.010184 0.989787
vt 0.071255 0.989787
vt 0.132327 0.989787
vt 0.193398 0.989787
vt 0.254469 0.989787
vt 0.315539 0.989787
vt 0.376610 0.989787
vt 0.437681 0.989787
vt 0.498752 0.989787
vt 0.559823 0.989787
vt 0.620894 0.989787
vt 0.681965 0.989787
vt 0.743036 0.989787
vt 0.804107 0.989787
vt 0.865178 0.989787
vt 0.926249 0.989787
vt 0.987320 0.989787
vn 0.923880 0.000000 -0.382683
vn 0.707107 0.000000 -0.707106
vn 0.707107 0.000000 -0.707106
vn 0.923880 0.000000 -0.382683
vn 0.382684 0.000000 -0.923879
vn 0.382684 0.000000 -0.923879
vn 0.000001 0.000000 -1.000000
vn 0.000001 0.000000 -1.000000
vn -0.382683 0.000000 -0.923880
vn -0.382683 0.000000 -0.923880
vn -0.707107 0.000000 -0.707107
vn -0.707107 0.000000 -0.707107
vn -0.923879 0.000000 -0.382684
vn -0.923879 0.000000 -0.382684
vn -1.000000 0.000000 -0.000000
vn -1.000000 0.000000 -0.000000
vn -0.923880 0.000000 0.382683
vn -0.923880 0.000000 0.382683
vn -0.707107 0.000000 0.707107
vn -0.707107 0.000000 0.707107
vn -0.382684 0.000000 0.923880
vn -0.382684 0.000000 0.923880
vn 0.000000 0.000000 1.000000
vn 0.000000 0.000000 1.000000
vn 0.382683 0.000000 0.923880
vn 0.382683 0.000000 0.923880
vn 0.707107 0.000000 0.707107
vn 0.707107 0.000000 0.707107
vn 0.923880 0.000000 0.382684
vn 0.923880 0.000000 0.382684
vn 1.000000 0.000000 0.000000
vn 1.000000 0.000000 0.000000
s 1
g pCylinder1
usemtl initialShadingGroup
f 1/1/1 2/2/2 18/19/3 17/18/4
f 2/2/2 3/3/5 19/20/6 18/19/3
f 3/3/5 4/4/7 20/21/8 19/20/6
f 4/4/7 5/5/9 21/22/10 20/21/8
f 5/5/9 6/6/11 22/23/12 21/22/10
f 6/6/11 7/7/13 23/24/14 22/23/12
f 7/7/13 8/8/15 24/25/16 23/24/14
f 8/8/15 9/9/17 25/26/18 24/25/16
f 9/9/17 10/10/19 26/27/20 25/26/18
f 10/10/19 11/11/21 27/28/22 26/27/20
f 11/11/21 12/12/23 28/29/24 27/28/22
f 12/12/23 13/13/25 29/30/26 28/29/24
f 13/13/25 14/14/27 30/31/28 29/30/26
f 14/14/27 15/15/29 31/32/30 30/31/28
f 15/15/29 16/16/31 32/33/32 31/32/30
f 16/16/31 1/17/1 17/34/4 32/33/32
